<svg width="646" height="124" viewBox="0 0 646 124" fill="none" xmlns="http://www.w3.org/2000/svg">
<path d="M24.1641 123.891C17.0762 123.891 11.3613 121.683 7.01953 117.267C2.71484 112.851 0.5625 106.672 0.5625 98.7305V53.5312C0.5625 44.0312 2.43652 36.7578 6.18457 31.7109C9.96973 26.6641 16.1113 24.1406 24.6094 24.1406C29.248 24.1406 33.3672 24.9941 36.9668 26.7012C40.6035 28.4082 43.4609 30.9688 45.5391 34.3828C47.6172 37.7598 48.6562 42.0273 48.6562 47.1855V64.1074H29.1738V49.6348C29.1738 46.7031 28.8027 44.7363 28.0605 43.7344C27.3184 42.6953 26.168 42.1758 24.6094 42.1758C22.791 42.1758 21.5664 42.8438 20.9355 44.1797C20.3047 45.4785 19.9893 47.2227 19.9893 49.4121V98.4521C19.9893 101.161 20.3789 103.072 21.1582 104.186C21.9746 105.299 23.125 105.855 24.6094 105.855C26.2793 105.855 27.4482 105.169 28.1162 103.796C28.8213 102.423 29.1738 100.642 29.1738 98.4521V80.8066H48.8789V99.3428C48.8789 107.952 46.708 114.205 42.3662 118.102C38.0244 121.961 31.957 123.891 24.1641 123.891ZM52.0273 123V25.0312H82.0859C87.0956 25.0312 90.8808 26.1816 93.4413 28.4824C96.0019 30.7461 97.7089 33.9375 98.5624 38.0566C99.453 42.1387 99.8984 46.9443 99.8984 52.4736C99.8984 57.8174 99.2118 62.085 97.8388 65.2764C96.5029 68.4678 93.9609 70.6758 90.2128 71.9004C93.2929 72.5312 95.4452 74.0713 96.6698 76.5205C97.9316 78.9326 98.5624 82.0684 98.5624 85.9277V123H79.247V84.6475C79.247 81.79 78.6532 80.0273 77.4657 79.3594C76.3154 78.6543 74.4413 78.3018 71.8437 78.3018V123H52.0273ZM71.955 61.3242H76.6864C79.3954 61.3242 80.7499 58.374 80.7499 52.4736C80.7499 48.6514 80.453 46.1465 79.8593 44.959C79.2655 43.7715 78.1523 43.1777 76.5195 43.1777H71.955V61.3242ZM102.045 123V25.0312H120.971V123H102.045ZM148.611 123.891C139.668 123.891 133.211 121.664 129.24 117.211C125.306 112.758 123.34 105.67 123.34 95.9473V86.373H142.711V98.6191C142.711 100.883 143.045 102.664 143.713 103.963C144.418 105.225 145.624 105.855 147.331 105.855C149.112 105.855 150.337 105.336 151.005 104.297C151.71 103.258 152.062 101.551 152.062 99.1758C152.062 96.1699 151.765 93.665 151.172 91.6611C150.578 89.6201 149.539 87.6904 148.054 85.8721C146.607 84.0166 144.585 81.8643 141.987 79.415L133.192 71.0654C126.624 64.8682 123.34 57.7803 123.34 49.8018C123.34 41.4521 125.269 35.0879 129.129 30.709C133.025 26.3301 138.647 24.1406 145.995 24.1406C154.975 24.1406 161.34 26.5342 165.088 31.3213C168.873 36.1084 170.765 43.3818 170.765 53.1416H150.838V46.4062C150.838 45.0703 150.448 44.0312 149.669 43.2891C148.927 42.5469 147.906 42.1758 146.607 42.1758C145.049 42.1758 143.898 42.6211 143.156 43.5117C142.451 44.3652 142.098 45.4785 142.098 46.8516C142.098 48.2246 142.469 49.709 143.212 51.3047C143.954 52.9004 145.42 54.7373 147.609 56.8154L158.909 67.6699C161.173 69.8223 163.251 72.1045 165.143 74.5166C167.036 76.8916 168.557 79.6748 169.708 82.8662C170.858 86.0205 171.433 89.8799 171.433 94.4443C171.433 103.647 169.726 110.865 166.312 116.098C162.935 121.293 157.035 123.891 148.611 123.891ZM182.987 123V43.8457H171.353V25.0312H214.215V43.8457H202.581V123H182.987ZM215.359 123V25.0312H234.285V123H215.359ZM235.986 123L245.449 25.0312H278.68L287.976 123H269.44L268.048 107.191H256.248L255.023 123H235.986ZM257.639 91.5498H266.545L262.259 41.7305H261.369L257.639 91.5498ZM290.568 123V25.0312H310.718L319.736 71.9561V25.0312H338.662V123H319.513L309.716 74.0156V123H290.568ZM367.224 123V25.0312H397.06L405.298 84.7588L413.481 25.0312H443.595V123H425.671V52.418L414.427 123H396.837L384.925 52.418V123H367.224ZM471.514 123.891C463.35 123.891 457.338 121.608 453.479 117.044C449.619 112.442 447.69 105.688 447.69 96.7822V25.0312H466.727V96.0029C466.727 97.6357 466.82 99.2129 467.005 100.734C467.191 102.219 467.617 103.443 468.285 104.408C468.953 105.373 470.029 105.855 471.514 105.855C473.035 105.855 474.13 105.392 474.798 104.464C475.466 103.499 475.874 102.256 476.023 100.734C476.208 99.2129 476.301 97.6357 476.301 96.0029V25.0312H495.338V96.7822C495.338 105.688 493.408 112.442 489.549 117.044C485.69 121.608 479.678 123.891 471.514 123.891ZM499.433 123V25.0312H519.583L528.601 71.9561V25.0312H547.526V123H528.378L518.581 74.0156V123H499.433ZM533.833 18.8525C531.087 18.8525 528.564 18.4258 526.263 17.5723C523.999 16.7188 521.94 15.8838 520.084 15.0674C518.229 14.2139 516.54 13.7871 515.019 13.7871C514.054 13.7871 513.145 14.0654 512.291 14.6221C511.438 15.1787 510.64 16.1621 509.898 17.5723L501.659 13.2305C502.587 10.9668 503.589 8.90723 504.665 7.05176C505.778 5.15918 507.189 3.65625 508.896 2.54297C510.603 1.39258 512.774 0.817383 515.408 0.817383C518.043 0.817383 520.418 1.20703 522.533 1.98633C524.686 2.76562 526.634 3.54492 528.378 4.32422C530.159 5.10352 531.774 5.49316 533.221 5.49316C534.223 5.49316 535.151 5.17773 536.004 4.54688C536.858 3.91602 537.655 2.83984 538.398 1.31836L547.638 4.32422C546.747 6.81055 545.764 9.16699 544.688 11.3936C543.611 13.6201 542.22 15.4199 540.513 16.793C538.843 18.166 536.616 18.8525 533.833 18.8525ZM576.169 123.891C568.339 123.891 562.346 121.534 558.19 116.821C554.07 112.071 552.011 105.225 552.011 96.2812V49.7461C552.011 41.3594 554.052 34.9951 558.134 30.6533C562.253 26.3115 568.265 24.1406 576.169 24.1406C584.073 24.1406 590.066 26.3115 594.148 30.6533C598.268 34.9951 600.327 41.3594 600.327 49.7461V96.2812C600.327 105.225 598.249 112.071 594.093 116.821C589.974 121.534 583.999 123.891 576.169 123.891ZM576.336 105.855C579.305 105.855 580.789 102.979 580.789 97.2275V49.4121C580.789 44.5879 579.342 42.1758 576.447 42.1758C573.182 42.1758 571.549 44.6436 571.549 49.5791V97.3389C571.549 100.382 571.92 102.571 572.662 103.907C573.404 105.206 574.629 105.855 576.336 105.855ZM602.251 123V105.188L624.684 43.0664H604.422V25.0312H645.335V42.1758L622.513 104.965H644.389V123H602.251Z" fill="url(#paint0_linear_225_687)"/>
<defs>
<linearGradient id="paint0_linear_225_687" x1="-3" y1="74.5" x2="648" y2="74.5" gradientUnits="userSpaceOnUse">
<stop stop-color="#FA709A"/>
<stop offset="1" stop-color="#FEE140"/>
</linearGradient>
</defs>
</svg>
